<?xml version="1.0" encoding="utf-8"?>
<!-- Generator: Adobe Illustrator 16.0.0, SVG Export Plug-In . SVG Version: 6.00 Build 0)  -->
<!DOCTYPE svg PUBLIC "-//W3C//DTD SVG 1.1//EN" "http://www.w3.org/Graphics/SVG/1.1/DTD/svg11.dtd">
<svg version="1.1" id="Layer_1" xmlns="http://www.w3.org/2000/svg" xmlns:xlink="http://www.w3.org/1999/xlink" x="0px" y="0px"
	 width="400.514px" height="100px" viewBox="0 0 400.514 100" enable-background="new 0 0 400.514 100" xml:space="preserve">
<g>
	<path fill="#3E8EDE" d="M360.397,54.996c3.253,1.277,4.42,3.107,4.42,5.975c0,3.655-2.517,5.788-6.447,5.788
		c-4.173,0-6.258-2.378-6.258-7.192v-0.851h-3.681v1.033c0,7.317,3.31,10.06,10,10.06c6.878,0,10.065-4.084,10.065-9.634
		c0-3.596-1.657-6.581-6.079-8.228l-5.34-2.011c-3.679-1.402-4.417-3.171-4.417-5.429c0-3.228,1.595-5.484,5.951-5.484
		c3.438,0,5.34,1.769,5.34,5.975v0.914h3.684v-0.914c0-5.917-2.822-9.022-8.962-9.022c-5.583,0-9.694,2.68-9.694,9.327
		c0,3.231,1.591,5.917,6.26,7.685L360.397,54.996z M327.562,46.338c0-4.695,1.843-7.314,6.261-7.314
		c3.378,0,5.646,1.462,5.646,5.605c0,3.722-0.487,4.451-3.129,5.124l-6.934,1.951c-4.662,1.28-6.571,4.632-6.571,8.961
		c0,5.608,2.582,9.146,8.288,9.146c3.686,0,6.938-1.222,8.411-5.484h0.119v1.096c0,3.352,1.845,4.021,4.73,4.021
		c0.425,0,1.041-0.119,1.715-0.366v-2.683h-1.041c-1.287,0-1.904-0.914-1.904-2.679V44.569c0-5.121-2.514-8.594-9.206-8.594
		c-6.935,0-10.063,3.717-10.063,10.362L327.562,46.338L327.562,46.338z M339.469,57.616c0,5.853-3.07,9.143-7.547,9.143
		c-3.196,0-5.155-2.499-5.155-6.339c0-3.902,1.898-5.732,5.585-6.708l3.065-0.791c1.474-0.426,3.498-0.976,3.926-2.135h0.126V57.616
		L339.469,57.616z M311.724,63.771c0,4.332,1.905,5.668,6.877,5.668c1.291,0,2.146-0.119,2.58-0.365v-3.049
		c-0.8,0.246-1.597,0.365-2.272,0.365c-2.393,0-3.496-0.789-3.496-3.412V39.753h5.77v-3.049h-5.77v-8.961h-3.685v8.961h-4.479v3.049
		h4.479v24.019H311.724L311.724,63.771z M301.231,58.348c-0.611,5.607-2.88,8.411-6.872,8.411c-3.621,0-6.938-2.862-6.938-12.188
		v-1.527h17.801v-1.34c0-10.793-3.316-15.729-10.497-15.729c-7.183,0-11.23,5.61-11.23,16.885c0,12.193,4.049,16.949,10.924,16.949
		c6.14,0,9.943-4.572,10.497-11.461H301.231L301.231,58.348L301.231,58.348z M287.423,49.998c0.061-8.049,2.332-10.975,6.938-10.975
		c4.48,0,6.748,2.926,6.934,10.975H287.423z M274.412,69.076h3.684V25.551h-3.684V69.076z M263.734,69.076h3.679V25.551h-3.679
		V69.076z M253.055,69.076h3.681v-32.37h-3.681V69.076z M253.055,31.768h3.681v-6.219h-3.681V31.768z M235.01,69.934
		c9.148,0,12.342-7.013,12.342-17.258c0-10.239-2.766-17.25-12.342-17.25c-9.573,0-12.272,7.007-12.272,17.25
		C222.736,62.921,225.928,69.934,235.01,69.934 M229.365,52.676c0-7.252,0.922-12.376,5.645-12.376
		c4.851,0,5.711,5.124,5.711,12.376c0,8.352-0.86,12.377-5.711,12.377C230.287,65.055,229.365,61.027,229.365,52.676
		 M210.706,69.076h6.629V36.275h-6.629V69.076z M210.706,31.646h6.629v-6.585h-6.629V31.646z M191.068,69.076h6.63v-19.63
		c0-6.098,3.621-7.438,6.629-7.438c1.167,0,2.272,0.186,2.765,0.368v-6.709c-0.369-0.185-0.925-0.24-1.598-0.24
		c-3.746,0-6.198,2.313-7.672,5.972h-0.124v-5.122h-6.63V69.076z M184.318,43.47c0-5.79-4.667-8.042-10.495-8.042
		c-8.716,0-11.602,3.779-11.602,10.788h6.262c0-3.172,0.61-6.28,5.033-6.28c3.498,0,4.541,1.89,4.541,4.877
		c0,2.863-1.475,3.536-3.867,4.203l-5.155,1.402c-4.417,1.466-7.672,2.989-7.672,10.305c0,6.344,3.255,9.209,8.59,9.209
		c3.928,0,6.448-1.59,8.228-4.816h0.123c0.186,3.168,2.64,4.326,5.582,4.326c1.289,0,2.456-0.366,3.254-0.791v-4.27
		c-0.243,0.126-0.614,0.184-1.104,0.184c-0.979,0-1.717-1.096-1.717-2.315V43.47z M178.058,57.248c0,4.877-1.967,7.805-5.955,7.805
		c-2.764,0-4.111-2.193-4.111-4.939c0-2.436,0.801-4.389,2.701-5.307c2.024-0.972,5.522-1.705,7.365-3.045V57.248L178.058,57.248z
		 M157.19,53.532v-3.475c0-9.082-2.456-14.628-11.659-14.628c-10.313,0-12.216,9.142-12.216,17.738
		c0,15.181,6.689,16.767,12.09,16.767c7.181,0,11.6-4.451,11.6-11.828h-6.26c0,2.013-0.554,7.316-5.278,7.316
		c-4.969,0-5.523-5.609-5.523-9.999v-1.888h17.248L157.19,53.532L157.19,53.532z M139.942,49.019v-0.668
		c0-4.267,1.35-8.413,5.523-8.413c3.741,0,5.096,3.171,5.096,7.316v1.767h-10.619V49.019z M104.714,69.076h6.632V47.07
		c0-4.389,2.578-6.401,5.279-6.401c3.435,0,4.604,1.527,4.604,5.916v22.493h6.629V44.329c0-6.646-3.193-8.899-8.228-8.899
		c-3.68,0-6.81,1.767-8.469,4.693h-0.183v-3.841h-6.264L104.714,69.076L104.714,69.076z M91.397,69.076h6.631V25.551h-6.631V69.076z
		 M84.341,43.47c0-5.79-4.667-8.042-10.495-8.042c-8.718,0-11.6,3.779-11.6,10.788h6.263c0-3.172,0.609-6.28,5.031-6.28
		c3.499,0,4.541,1.89,4.541,4.877c0,2.863-1.473,3.536-3.866,4.203l-5.153,1.402c-4.422,1.466-7.675,2.989-7.675,10.305
		c0,6.344,3.253,9.209,8.593,9.209c3.928,0,6.442-1.59,8.224-4.816h0.121c0.189,3.168,2.64,4.326,5.587,4.326
		c1.289,0,2.454-0.366,3.253-0.791v-4.27c-0.245,0.126-0.613,0.184-1.104,0.184c-0.982,0-1.718-1.096-1.718-2.315V43.47H84.341z
		 M78.081,57.248c0,4.877-1.964,7.805-5.954,7.805c-2.763,0-4.111-2.193-4.111-4.939c0-2.436,0.801-4.389,2.699-5.307
		c2.028-0.972,5.525-1.705,7.366-3.045V57.248z M33.153,69.076h6.264v-4.021h0.119c0.799,2.135,2.58,4.879,7.246,4.879
		c7.67,0,10.802-6.402,10.802-17.686c0-14.568-5.152-16.82-10.188-16.82c-3.623,0-6.261,1.766-7.488,4.693h-0.124v-14.57h-6.63
		L33.153,69.076L33.153,69.076z M39.417,53.042c0-7.863,0.856-12.375,6.014-12.375c3.744,0,5.156,3.048,5.156,11.888
		c0,7.438-0.922,12.135-5.587,12.135C40.459,64.689,39.417,60.115,39.417,53.042"/>
	<path fill="#3E8EDE" d="M391.184,90.613H9.21V9.387h381.975V90.613z M400.513,0H0v100h400.514V0z"/>
</g>
</svg>
